<?xml version="1.0" encoding="UTF-8"?>
<svg version="1.1" xmlns="http://www.w3.org/2000/svg" width="1024" height="1024">
<path d="M0 0 C337.92 0 675.84 0 1024 0 C1024 337.92 1024 675.84 1024 1024 C686.08 1024 348.16 1024 0 1024 C0 686.08 0 348.16 0 0 Z " fill="#E7E7E7" transform="translate(0,0)"/>
<path d="M0 0 C1.2367749 0.49306641 1.2367749 0.49306641 2.49853516 0.99609375 C31.80897411 12.80897411 31.80897411 12.80897411 38 19 C38.08790975 21.29151417 38.10694038 23.58572524 38.09765625 25.87890625 C38.09553383 26.90889992 38.09553383 26.90889992 38.09336853 27.95970154 C38.08775479 30.16067801 38.07520007 32.36155409 38.0625 34.5625 C38.05748676 36.05143083 38.05292355 37.54036324 38.04882812 39.02929688 C38.03778093 42.68623075 38.02050713 46.34310558 38 50 C33.3605366 48.57534591 29.08644213 46.68330789 24.7578125 44.515625 C23.34645469 43.82010847 21.93499277 43.12480318 20.5234375 42.4296875 C18.33966369 41.34896707 16.15707639 40.26599446 13.9765625 39.17871094 C3.84477946 34.13601489 -6.32473771 29.76122846 -17 26 C-18.12172607 25.60449951 -19.24345215 25.20899902 -20.39916992 24.80151367 C-23.25143407 23.81200249 -26.11472216 22.88839346 -29 22 C-29.85722656 21.73445313 -30.71445312 21.46890625 -31.59765625 21.1953125 C-61.63486022 12.81082679 -97.75996025 12.82213164 -128 20 C-128.84739746 20.19255371 -129.69479492 20.38510742 -130.56787109 20.58349609 C-144.00302909 23.67795138 -156.91852711 27.90436884 -169.25024414 34.10766602 C-170.32786514 34.64899673 -171.40548615 35.19032745 -172.51576233 35.74806213 C-173.33556076 36.16120163 -174.15535919 36.57434113 -175 37 C-175.09458642 44.20894385 -175.16468437 51.41774455 -175.20724869 58.62719345 C-175.22772484 61.9785031 -175.25762569 65.32904858 -175.30175781 68.68017578 C-175.60158474 92.07549437 -174.92898585 116.04550782 -166.75 138.25 C-166.36013916 139.36004395 -165.97027832 140.47008789 -165.56860352 141.61376953 C-162.38075019 150.46640658 -158.66155133 158.83296206 -154 167 C-153.37609375 168.10859375 -152.7521875 169.2171875 -152.109375 170.359375 C-144.42361241 183.41892282 -132.56171758 201.83948134 -118.83276367 209.15478516 C-116.39538463 211.60872292 -116.54544556 213.6270077 -116.54681396 216.98112488 C-116.56745911 217.77497086 -116.58810425 218.56881683 -116.609375 219.38671875 C-116.61503479 220.20372757 -116.62069458 221.02073639 -116.62652588 221.86250305 C-116.64891303 224.47143203 -116.69911154 227.07898636 -116.75 229.6875 C-116.77006208 231.45636037 -116.78831336 233.22524227 -116.8046875 234.99414062 C-116.8487852 239.32995656 -116.91782706 243.66474525 -117 248 C-128.68229195 240.72098386 -138.92390815 232.36697246 -149 223 C-149.71542969 222.3503125 -150.43085938 221.700625 -151.16796875 221.03125 C-167.02498535 206.01185358 -178.7947663 186.63683079 -188 167 C-188.53496094 165.88238281 -189.06992187 164.76476562 -189.62109375 163.61328125 C-197.30379506 146.7512485 -201.49909092 128.30462716 -204 110 C-204.08784256 109.37822876 -204.17568512 108.75645752 -204.26618958 108.11584473 C-205.34949843 99.21113357 -205.12506887 90.25845368 -205.09765625 81.3046875 C-205.09578808 79.50294026 -205.09436606 77.70119251 -205.09336853 75.89944458 C-205.08957474 71.1878923 -205.07977172 66.4763715 -205.06866455 61.76483154 C-205.0583825 56.94478786 -205.05385643 52.12473902 -205.04882812 47.3046875 C-205.03814624 37.86977794 -205.0211081 28.4348916 -205 19 C-202.14153032 17.40462232 -199.28181034 15.81149858 -196.421875 14.21875 C-195.61991699 13.77112305 -194.81795898 13.32349609 -193.99169922 12.86230469 C-170.37392621 -0.28275552 -144.62504239 -8.53853416 -118 -13 C-117.29327148 -13.12842285 -116.58654297 -13.2568457 -115.85839844 -13.38916016 C-78.07063648 -20.12016409 -35.31365601 -14.17270475 0 0 Z " fill="#396769" transform="translate(601,376)"/>
<path d="M0 0 C4.09029811 0.90251743 7.48100079 2.74358748 11.125 4.75 C17.01881586 7.96931118 22.97926205 11.02425065 29 14 C29.64657043 54.14041882 29.64657043 54.14041882 26 72 C25.83371094 72.82242188 25.66742187 73.64484375 25.49609375 74.4921875 C15.69738088 121.09051092 -10.80220369 161.14125843 -48.6875 189.75 C-49.38319092 190.2759375 -50.07888184 190.801875 -50.7956543 191.34375 C-55.74252615 195 -55.74252615 195 -58 195 C-58.3248883 189.95096664 -58.55873643 184.90816867 -58.71411133 179.85107422 C-58.77893191 178.13743047 -58.86724268 176.42448998 -58.98071289 174.71337891 C-59.94770493 159.7403166 -59.94770493 159.7403166 -55.25048828 154.32788086 C-52.58167045 151.71285722 -49.69285965 149.48028103 -46.66963196 147.29304504 C-27.85443168 132.72162926 -17.05259157 108.70657527 -9 87 C-8.57589844 85.86046875 -8.15179687 84.7209375 -7.71484375 83.546875 C-2.36852423 68.34137311 -0.94846304 53.11453473 -0.68359375 37.109375 C-0.66281265 36.03874817 -0.64203156 34.96812134 -0.62062073 33.86505127 C-0.55599041 30.49342358 -0.49664888 27.12172784 -0.4375 23.75 C-0.39423219 21.44400379 -0.35061549 19.13801409 -0.30664062 16.83203125 C-0.20039978 11.22142308 -0.098484 5.61074941 0 0 Z " fill="#74C8C0" transform="translate(610,429)"/>
<path d="M0 0 C0.66 0 1.32 0 2 0 C2.18705467 16.04653973 2.32803835 32.09272473 2.41449738 48.1400919 C2.45571286 55.59156852 2.51188119 63.04236696 2.60351562 70.4934082 C2.68336613 76.98937485 2.73489177 83.48485029 2.75270796 89.9812941 C2.76311981 93.42001322 2.78750522 96.85732739 2.84584045 100.29559517 C2.91050371 104.13816358 2.91191212 107.97936984 2.90820312 111.82250977 C2.95134644 113.52399673 2.95134644 113.52399673 2.99536133 115.25985718 C2.91633412 122.82660351 2.91633412 122.82660351 0.25984192 126.22833061 C-1.74722984 128.00878055 -3.7624103 129.52465757 -6 131 C-7.43472656 132.09634766 -7.43472656 132.09634766 -8.8984375 133.21484375 C-10.12433594 134.06755859 -10.12433594 134.06755859 -11.375 134.9375 C-12.20773437 135.52402344 -13.04046875 136.11054687 -13.8984375 136.71484375 C-16 138 -16 138 -18 138 C-18 114.57 -18 91.14 -18 67 C-28.23 67 -38.46 67 -49 67 C-44.63815923 60.14567878 -40.46469098 53.7774201 -35.4375 47.5 C-30.5172578 41.26315701 -25.6988882 34.96790674 -21 28.5625 C-20.43176514 27.7893042 -19.86353027 27.0161084 -19.27807617 26.21948242 C-16.1955164 22.01709836 -13.13185553 17.80149764 -10.078125 13.578125 C-9.11712891 12.25639282 -9.11712891 12.25639282 -8.13671875 10.90795898 C-6.89935974 9.20578977 -5.6673872 7.49968908 -4.44140625 5.78930664 C-3.88839844 5.02996826 -3.33539062 4.27062988 -2.765625 3.48828125 C-2.27868164 2.81321533 -1.79173828 2.13814941 -1.29003906 1.44262695 C-0.86432617 0.96656006 -0.43861328 0.49049316 0 0 Z " fill="#336466" transform="translate(516,418)"/>
<path d="M0 0 C0.66 0 1.32 0 2 0 C3.16992188 1.35424805 3.16992188 1.35424805 4.46875 3.26171875 C4.9519873 3.96151855 5.43522461 4.66131836 5.93310547 5.38232422 C6.45018066 6.14303223 6.96725586 6.90374023 7.5 7.6875 C11.94287392 14.10675551 16.51462081 20.34509017 21.3125 26.50390625 C25.1910371 31.5122142 28.91383813 36.63694364 32.65844727 41.74560547 C35.58892975 45.73985751 38.53394788 49.72056916 41.52734375 53.66796875 C42.08115723 54.39910889 42.6349707 55.13024902 43.20556641 55.88354492 C44.25262216 57.26259784 45.30292366 58.63919429 46.35693359 60.01293945 C48.36569782 62.66085594 49.94103873 64.82311618 51 68 C41.1 68 31.2 68 21 68 C21 91.43 21 114.86 21 139 C16.40792062 137.16316825 13.16479983 135.02837886 9.375 132 C4.78052804 128.37506013 4.78052804 128.37506013 0 125 C-0.36914349 122.80173302 -0.36914349 122.80173302 -0.36076355 120.01400757 C-0.36488754 118.95948898 -0.36901154 117.9049704 -0.3732605 116.8184967 C-0.36247467 115.65684494 -0.35168884 114.49519318 -0.34057617 113.29833984 C-0.34101425 112.07885147 -0.34145233 110.8593631 -0.34190369 109.60292053 C-0.34016855 106.25375602 -0.32509703 102.9051425 -0.30418181 99.55607557 C-0.28546052 96.05804019 -0.28366818 92.55999791 -0.28010559 89.06192017 C-0.2707717 82.43558819 -0.24613988 75.80940425 -0.21605712 69.18313754 C-0.1825548 61.64032932 -0.16603762 54.09751413 -0.15097082 46.55465007 C-0.11959138 31.03634757 -0.06680494 15.51819285 0 0 Z " fill="#7DCDBF" transform="translate(517,417)"/>
<path d="M0 0 C6.33671909 3.43556475 12.3440246 7.0817246 14.80566406 14.16430664 C16.32703482 22.33961698 16.10048697 30.54991622 15.79418945 38.82269287 C15.72469171 41.53808054 15.77502612 44.24619656 15.82286072 46.96163177 C16.10120459 66.4925374 16.10120459 66.4925374 12.37744141 72.1940918 C8.73552063 75.80955925 4.58695525 77.4788435 -0.2578125 79.10449219 C-1.49438789 79.69682247 -2.72851488 80.2942952 -3.95996094 80.8972168 C-7.2578125 82.10449219 -7.2578125 82.10449219 -9.47363281 81.55883789 C-10.08819336 81.13691162 -10.70275391 80.71498535 -11.3359375 80.28027344 C-12.36460937 79.60254883 -12.36460937 79.60254883 -13.4140625 78.91113281 C-14.105 78.41806641 -14.7959375 77.925 -15.5078125 77.41699219 C-16.21421875 76.94326172 -16.920625 76.46953125 -17.6484375 75.98144531 C-19.53490362 74.71129625 -21.39678391 73.41143938 -23.2578125 72.10449219 C-24.2478125 71.44449219 -25.2378125 70.78449219 -26.2578125 70.10449219 C-26.73970032 67.71832275 -26.73970032 67.71832275 -26.8840332 64.68359375 C-26.97084099 62.97976532 -26.97084099 62.97976532 -27.05940247 61.24151611 C-27.2331616 55.99983567 -27.38162715 50.75888804 -27.47290039 45.51513672 C-27.52599198 42.75849559 -27.62961814 40.01128942 -27.78051758 37.25830078 C-28.96161099 15.2234473 -28.96161099 15.2234473 -24.48773193 8.40795898 C-17.19924274 0.57716604 -10.13545795 -4.92462882 0 0 Z " fill="#234F59" transform="translate(524.2578125,563.8955078125)"/>
<path d="M0 0 C4.455 2.97 4.455 2.97 9 6 C10.0659288 6.6157338 11.1318576 7.23146759 12.23008728 7.86585999 C16.31680678 10.3668204 19.39056413 12.29572756 21.04421997 16.9201355 C21.50575011 20.44737707 21.60385663 23.81398207 21.56640625 27.37109375 C21.59286476 29.28644676 21.59286476 29.28644676 21.61985779 31.24049377 C21.64046067 33.93679458 21.63827341 36.6217124 21.59887695 39.31665039 C21.56210767 42.06594928 21.58292534 44.80453257 21.66040039 47.55297852 C22.2806679 69.55945239 22.2806679 69.55945239 18.59344482 75.12188721 C14.90886597 78.68792592 10.79417315 80.36624338 6 82 C4.515 82.99 4.515 82.99 3 84 C2.01 84 1.02 84 0 84 C0 56.28 0 28.56 0 0 Z " fill="#4CACBE" transform="translate(518,561)"/>
<path d="M0 0 C0.33 0 0.66 0 1 0 C1 11.22 1 22.44 1 34 C0.01 33.34 -0.98 32.68 -2 32 C-2 31.01 -2 30.02 -2 29 C-1.34 29 -0.68 29 0 29 C0 19.43 0 9.86 0 0 Z " fill="#3B5C64" transform="translate(483,590)"/>
<path d="M0 0 C0.33 0 0.66 0 1 0 C1 10.23 1 20.46 1 31 C-0.32 30.34 -1.64 29.68 -3 29 C-2.34 28.67 -1.68 28.34 -1 28 C-0.67 18.76 -0.34 9.52 0 0 Z " fill="#537F7B" transform="translate(638,395)"/>
<path d="M0 0 C0.33 0 0.66 0 1 0 C1 5.61 1 11.22 1 17 C0.01 16.67 -0.98 16.34 -2 16 C-1.34 10.72 -0.68 5.44 0 0 Z " fill="#6ABDC1" transform="translate(537,539)"/>
<path d="M0 0 C0.5625 1.9375 0.5625 1.9375 1 4 C0 5 0 5 -2.5625 5.0625 C-3.7690625 5.0315625 -3.7690625 5.0315625 -5 5 C-5.33 4.34 -5.66 3.68 -6 3 C-4.02 2.01 -2.04 1.02 0 0 Z " fill="#457173" transform="translate(405,390)"/>
</svg>
